# AST/ASF file generated using VICON BodyLanguage
# -----------------------------------------------
:version 1.10
:name VICON
:units
  mass 1.0
  length 0.45
  angle deg
:documentation
   .ast/.asf automatically generated from VICON data using
   VICON BodyBuilder and BodyLanguage model FoxedUp or BRILLIANT.MOD
:root
   order TX TY TZ RX RY RZ
   axis XYZ
   position 0 0 0  
   orientation 0 0 0 
:bonedata
  begin
     id 1 
     name lhipjoint
     direction 0.576517 -0.752066 0.319413 
     length 2.45433 
     axis 0 0 0  XYZ
  end
  begin
     id 2 
     name lfemur
     direction 0.34202 -0.939693 0  
     length 7.54459  
     axis 0 0 20  XYZ
    dof rx ry rz
    limits (-160.0 20.0)
           (-70.0 70.0)
           (-60.0 70.0)
  end
  begin
     id 3 
     name ltibia
     direction 0.34202 -0.939693 0   
     length 7.73986   
     axis 0 0 20   XYZ
    dof rx
    limits (-10.0 170.0)
  end
  begin
     id 4 
     name lfoot
     direction 0.090693 -0.249177 0.964202   
     length 2.28437   
     axis -90 7.62852e-016 20   XYZ
    dof rx rz
    limits (-45.0 90.0)
           (-70.0 20.0)
  end
  begin
     id 5 
     name ltoes
     direction 1.5356e-011 -4.21928e-011 1   
     length 1.14243   
     axis -90 7.62852e-016 20   XYZ
    dof rx
    limits (-90.0 20.0)
  end
  begin
     id 6 
     name rhipjoint
     direction -0.573937 -0.753736 0.320122   
     length 2.44889  
     axis 0 0 0  XYZ 
  end
  begin
     id 7 
     name rfemur
     direction -0.34202 -0.939693 0   
     length 7.50166   
     axis 0 0 -20   XYZ
    dof rx ry rz
    limits (-160.0 20.0)
           (-70.0 70.0)
           (-70.0 60.0)
  end
  begin
     id 8 
     name rtibia
     direction -0.34202 -0.939693 0   
     length 7.54266   
     axis 0 0 -20   XYZ
    dof rx
    limits (-10.0 170.0)
 end
 begin
     id 9 
     name rfoot
     direction -0.114017 -0.31326 0.942798   
     length 2.34212  
     axis -90 -7.62852e-016 -20   XYZ
    dof rx rz
    limits (-45.0 90.0)
           (-20.0 70.0)
  end
  begin
     id 10 
     name rtoes
     direction -1.53557e-011 -4.21867e-011 1   
     length 1.16246   
     axis -90 -7.62852e-016 -20   XYZ
    dof rx
    limits (-90.0 20.0)
  end
  begin
     id 11 
     name lowerback
     direction -0.0228371 0.999155 -0.034167   
     length 2.0537   
     axis 0 0 0   XYZ
    dof rx ry rz
    limits (-20.0 45.0)
           (-30.0 30.0)
           (-30.0 30.0)
  end
  begin
     id 12 
     name upperback
     direction 0.0198981 0.999794 0.00389455   
     length 2.05302   
     axis 0 0 0   XYZ
    dof rx ry rz
    limits (-20.0 45.0)
           (-30.0 30.0)
           (-30.0 30.0)
  end
  begin
     id 13 
     name thorax
     direction 0.0304566 0.99935 0.0192987   
     length 2.05315   
     axis 0 0 0   XYZ
    dof rx ry rz
    limits (-20.0 45.0)
           (-30.0 30.0)
           (-30.0 30.0)
  end
  begin
     id 14 
     name lowerneck
     direction -0.0196762 0.99417 0.106017   
     length 1.82056   
     axis 0 0 0   XYZ
    dof rx ry rz
    limits (-20.0 45.0)
           (-30.0 30.0)
           (-30.0 30.0)
  end
  begin
     id 15 
     name upperneck
     direction 0.00517787 0.9802 -0.197944   
     length 1.83835   
     axis 0 0 0   XYZ
    dof rx ry rz
    limits (-20.0 45.0)
           (-30.0 30.0)
           (-30.0 30.0)
  end
  begin
     id 16
     name head
     direction 0.00211419 0.996945 -0.078081  
     length 1.85629  
     axis 0 0 0   XYZ
    dof rx ry rz
    limits (-20.0 45.0)
           (-30.0 30.0)
           (-30.0 30.0)
  end
  begin
     id 17 
     name lclavicle
     direction 0.930001 0.365811 -0.0357824  
     length 3.81961  
     axis 0 0 0   XYZ
    dof ry rz
    limits (-20.0 10.0)
           (0.0 20.0)
  end
  begin
     id 18 
     name lhumerus
     direction 1 -4.48968e-011 -3.06644e-027   
     length 5.14507   
     axis 180 -30 -90   XYZ
    dof rx ry rz
    limits (-60.0 90.0)
           (-90.0 90.0)
           (-90.0 90.0)
  end
  begin
     id 19
     name lradius
     direction 1 -4.48965e-011 9.06925e-028   
     length 3.50646   
     axis 180 -30 -90   XYZ
    dof rx
    limits (-10.0 170.0)
  end
  begin
     id 20
     name lwrist
     direction 1 -4.48957e-011 1.03922e-027   
     length 1.75323   
     axis -2.56395e-016 90 90   XYZ
    dof ry
    limits (-180.0 0.0)
 end
  begin
     id 21 
     name lhand
     direction 1 -4.48967e-011 2.08017e-027   
     length 0.629969   
     axis -1.32723e-015 90 90   XYZ
    dof rx rz
    limits (-90.0 90.0)
           (-45.0 45.0)
  end
  begin
     id 22 
     name lfingers
     direction 1 -4.49089e-011 4.20095e-027   
     length 0.507897   
     axis -2.6545e-015 90 90   XYZ
    dof rx
    limits (0.0 90.0)
  end
  begin
     id 23
     name lthumb
     direction 0.707107 -6.35001e-011 0.707107   
     length 0.729241   
     axis -90 45 5.05613e-014   XYZ
    dof rx rz
    limits (-45.0 45.0)
           (-45.0 45.0)
  end
  begin
     id 24 
     name rclavicle
     direction -0.881882 0.464123 -0.0829113   
     length 3.47515  
     axis 0 0 0   XYZ 
    dof ry rz
    limits (-10.0 20.0)
           (-20.0 0.0)
  end
  begin
     id 25 
     name rhumerus
     direction -1 -4.48961e-011 -1.55672e-027  
     length 5.232   
     axis 180 30 90   XYZ
    dof rx ry rz
    limits (-90.0 60.0)
           (-90.0 90.0)
           (-90.0 90.0)
  end
  begin
     id 26 
     name rradius
     direction -1 -4.48963e-011 6.18178e-029   
     length 3.65641   
     axis 180 30 90   XYZ
    dof rx
    limits (-10.0 170.0)
  end
  begin
     id 27 
     name rwrist
     direction -1 -4.48982e-011 1.04136e-027   
     length 1.8282   
     axis -2.56395e-016 -90 -90   XYZ
    dof ry
    limits (-180.0 0.0)
  end
  begin
     id 28
     name rhand
     direction -1 -4.48929e-011 2.07378e-027   
     length 0.656807   
     axis -1.32723e-015 -90 -90   XYZ
    dof rx rz
    limits (-90.0 90.0)
           (-45.0 45.0)
  end
  begin
     id 29
     name rfingers
     direction -1 -4.489e-011 4.13816e-027   
     length 0.529535   
     axis -2.6545e-015 -90 -90   XYZ
    dof rx
    limits (0.0 90.0)
  end
  begin
     id 30
     name rthumb
     direction -0.707107 -6.34843e-011 0.707107   
     length 0.760309   
     axis -90 -45 -5.05613e-014   XYZ
    dof rx rz
    limits (-45.0 45.0)
           (-45.0 45.0)
  end
:hierarchy
  begin
    root lhipjoint rhipjoint lowerback
    lhipjoint lfemur
    lfemur ltibia
    ltibia lfoot
    lfoot ltoes
    rhipjoint rfemur
    rfemur rtibia
    rtibia rfoot
    rfoot rtoes
    lowerback upperback
    upperback thorax
    thorax lowerneck lclavicle rclavicle
    lowerneck upperneck
    upperneck head
    lclavicle lhumerus
    lhumerus lradius
    lradius lwrist
    lwrist lhand lthumb
    lhand lfingers
    rclavicle rhumerus
    rhumerus rradius
    rradius rwrist
    rwrist rhand rthumb
    rhand rfingers
  end

#!OML:ASF H:\ManfredETheater\Project 1\Capture day 1\Session 1\subject.ASF
:FULLY-SPECIFIED
:DEGREES
1
root 2.99986 15.7499 44.1179 -148.124 8.90281 -177.932
lowerback 29.7733 -0.467256 3.28406
upperback 2.92739 2.02769 4.37748
thorax -12.4965 1.2346 2.06543
lowerneck -12.5616 0.677883 -1.92802
upperneck -1.41471 1.98724 -8.44776
head 1.80478 1.00897 -2.28439
rclavicle -1.74931e-014 -7.15625e-015
rhumerus -33.5866 5.18416 -79.5425
rradius 63.4662
rwrist -10.5706
rhand -20.5648 -12.518
rfingers 7.12502
rthumb 5.7945 -42.4188
lclavicle -1.74931e-014 -7.15625e-015
lhumerus -30.2984 -13.0661 93.8353
lradius 91.6007
lwrist -6.04755
lhand -28.7606 -6.78205
lfingers 7.12502
lthumb -2.12053 23.1872
rfemur -70.0958 -10.36 35.903
rtibia 58.2783
rfoot -23.2798 1.88171
rtoes -28.3236
lfemur -30.5617 2.00969 -20.9684
ltibia 72.0213
lfoot 7.05935 -9.91203
ltoes 12.1898
2
root 3.01671 15.7422 43.808 -147.884 8.99362 -177.516
lowerback 30.2677 -0.512648 3.57196
upperback 3.08635 2.14112 4.41961
thorax -12.5275 1.29003 1.90446
lowerneck -12.4061 0.691772 -2.01884
upperneck -1.67232 2.01716 -8.64656
head 1.69511 1.04208 -2.33084
rclavicle 1.03368e-014 9.54166e-015
rhumerus -32.0295 5.27622 -79.6403
rradius 62.9406
rwrist -10.2388
rhand -20.3466 -12.1945
rfingers 7.12502
rthumb 6.00521 -42.0894
lclavicle 1.03368e-014 9.54166e-015
lhumerus -30.2305 -11.9541 93.4828
lradius 90.0065
lwrist -5.52765
lhand -28.9328 -6.96486
lfingers 7.12502
lthumb -2.28682 23.0026
rfemur -69.3891 -10.5616 36.1572
rtibia 59.0088
rfoot -24.2827 1.7243
rtoes -29.063
lfemur -33.5196 2.52657 -20.4156
ltibia 75.2237
lfoot 4.00417 -9.33507
ltoes 10.5684
3
root 3.03644 15.7339 43.4994 -147.712 9.1227 -177.24
lowerback 30.9231 -0.529393 3.44397
upperback 3.17067 2.18749 4.61546
thorax -12.7358 1.33396 2.15786
lowerneck -12.0911 0.775509 -2.35578
upperneck -1.96771 2.16251 -8.86188
head 1.54539 1.14017 -2.3322
rclavicle -5.56597e-015 4.92986e-014
rhumerus -30.6035 5.8785 -79.629
rradius 62.6518
rwrist -10.0437
rhand -20.3929 -12.1663
rfingers 7.12502
rthumb 5.96046 -42.0625
lclavicle -5.56597e-015 4.92986e-014
lhumerus -30.2834 -10.4074 93.3084
lradius 88.42
lwrist -4.50573
lhand -28.9355 -7.27109
lfingers 7.12502
lthumb -2.28941 22.6964
rfemur -68.6363 -10.7631 36.2241
rtibia 59.6695
rfoot -25.1467 1.43398
rtoes -29.5993
lfemur -36.5244 3.03626 -20.0433
ltibia 78.1908
lfoot 0.88682 -8.65357
ltoes 7.49688
4
root 3.05428 15.7152 43.1885 -147.613 9.26113 -177.012
lowerback 31.4961 -0.464782 3.59453
upperback 3.36065 2.38834 4.54593
thorax -12.7592 1.43273 1.91483
lowerneck -12.1098 0.673866 -2.29725
upperneck -2.11319 2.03156 -9.01281
head 1.50025 1.08576 -2.39944
rclavicle 3.97569e-014 -1.74931e-014
rhumerus -29.1742 5.67167 -79.737
rradius 62.5573
rwrist -9.71563
rhand -20.4996 -12.0376
rfingers 7.12502
rthumb 5.85747 -41.9366
lclavicle 3.97569e-014 -1.74931e-014
lhumerus -30.1175 -9.69321 92.9428
lradius 86.8135
lwrist -3.02539
lhand -29.664 -7.39208
lfingers 7.12502
lthumb -2.993 22.5667
rfemur -67.856 -11.1013 36.3152
rtibia 60.351
rfoot -25.9295 1.02489
rtoes -30.3504
lfemur -39.5638 3.59416 -19.7727
ltibia 81.0582
lfoot -2.9809 -7.91229
ltoes 2.07217
5
root 3.07394 15.7425 42.8651 -147.633 9.17627 -176.766
lowerback 32.1468 -0.457052 3.92657
upperback 3.53615 2.59862 4.48488
thorax -12.8187 1.53024 1.57714
lowerneck -12.1514 0.573778 -2.10127
upperneck -2.19364 1.88847 -9.2125
head 1.48316 1.01885 -2.5092
rclavicle -1.11319e-014 3.26007e-014
rhumerus -27.9768 5.42155 -79.9001
rradius 63.056
rwrist -9.58946
rhand -20.9986 -11.8892
rfingers 7.12502
rthumb 5.37567 -41.801
lclavicle -1.11319e-014 3.26007e-014
lhumerus -29.8977 -9.13278 92.5691
lradius 85.414
lwrist -1.22981
lhand -30.3027 -7.43972
lfingers 7.12502
lthumb -3.60978 22.5095
rfemur -66.7863 -11.6188 36.5313
rtibia 60.9003
rfoot -26.5398 0.335261
rtoes -30.7735
lfemur -42.6936 3.90846 -19.4008
ltibia 83.5332
lfoot -4.74702 -7.48682
ltoes 3.79082
6
root 3.0902 15.7136 42.5548 -147.616 9.18256 -176.48
lowerback 32.7966 -0.455076 4.17121
upperback 3.71435 2.78142 4.46396
thorax -12.8746 1.62085 1.33969
lowerneck -12.124 0.503913 -2.03784
upperneck -2.33802 1.7964 -9.39645
head 1.43185 0.984117 -2.5867
rclavicle -1.27222e-014 3.85642e-014
rhumerus -26.6671 5.35606 -80.0147
rradius 63.2994
rwrist -9.47315
rhand -21.2631 -11.7444
rfingers 7.12502
rthumb 5.12033 -41.6625
lclavicle -1.27222e-014 3.85642e-014
lhumerus -29.7135 -8.32385 92.1997
lradius 83.9764
lwrist 0.0882818
lhand -30.7521 -7.52571
lfingers 7.12502
lthumb -4.04372 22.4157
rfemur -65.9516 -12.0133 36.6909
rtibia 61.6478
rfoot -27.1776 -0.298438
rtoes -31.5467
lfemur -45.8399 4.35673 -19.0466
ltibia 86.103
lfoot -7.04534 -6.86902
ltoes 2.53039
7
root 3.10532 15.6788 42.2434 -147.654 9.17312 -176.19
lowerback 33.4736 -0.456784 4.44902
upperback 3.90751 2.97906 4.42503
thorax -12.9153 1.71869 1.0579
lowerneck -12.1196 0.419079 -1.93962
upperneck -2.46881 1.68132 -9.57328
head 1.38827 0.936768 -2.66966
rclavicle -1.43125e-014 -8.07066e-014
rhumerus -25.3976 5.26568 -80.1346
rradius 63.7059
rwrist -9.44569
rhand -21.5524 -11.5935
rfingers 7.12502
rthumb 4.841 -41.5182
lclavicle -1.43125e-014 -8.07066e-014
lhumerus -29.4885 -7.56809 91.8088
lradius 82.5916
lwrist 1.29228
lhand -31.1892 -7.55147
lfingers 7.12502
lthumb -4.46583 22.3815
rfemur -65.0726 -12.4351 36.8361
rtibia 62.4332
rfoot -27.7401 -1.02777
rtoes -32.3783
lfemur -49.0206 4.79188 -18.7124
ltibia 88.4959
lfoot -9.03646 -6.32231
ltoes 1.63745
8
root 3.11884 15.638 41.9304 -147.744 9.16143 -175.894
lowerback 34.1621 -0.468348 4.76374
upperback 4.12063 3.18287 4.35911
thorax -12.9261 1.82024 0.72421
lowerneck -12.1319 0.324076 -1.80703
upperneck -2.59482 1.5483 -9.73875
head 1.34839 0.879749 -2.75629
rclavicle -1.27222e-014 -7.196e-014
rhumerus -24.147 5.15567 -80.2676
rradius 64.2394
rwrist -9.49996
rhand -21.8168 -11.3386
rfingers 7.12502
rthumb 4.58564 -41.2689
lclavicle -1.27222e-014 -7.196e-014
lhumerus -29.2205 -6.85356 91.3767
lradius 81.2832
lwrist 2.3351
lhand -31.5468 -7.45906
lfingers 7.12502
lthumb -4.81112 22.4663
rfemur -64.1763 -12.8655 36.9494
rtibia 63.3483
rfoot -28.2876 -1.81704
rtoes -33.1426
lfemur -52.2256 5.21776 -18.4058
ltibia 90.7383
lfoot -10.7799 -5.88171
ltoes 1.11622
